<svg xmlns="http://www.w3.org/2000/svg" viewBox="473.09 21.83 102.68 148.53">     <g fill-rule="evenodd" clip-rule="evenodd">         <path d="M564.572 132.977c13.05-19.441 17.036-38.394-.88-55.167 4.496-6.893 10.495-12.953 5.549-19.835-1.595-2.219-2.342-3.639-3.964-5.701-2.648-3.366-7.813-2.124-12.603.328-4.651 2.38-9.244 4.562-14.201 5.916-2.819.77-7.418-15.92-12.269-20.465-7.874-7.379-19.211-6.874-28.176-1.942-5.704-8.065-10.769-11.018-15.872-14.283 4.996 4.564 10.049 9.015 14.197 15.273a30.905 30.905 0 0 0-2.409 1.693c-11.318-10.881-14.343-10.779-17.955-12.058 4.745 2.891 11.538 6.56 16.485 13.274-.518.457-1.019.932-1.501 1.422-5.186-4.645-10.311-7.955-17.879-8.151 7.074 1.769 11.839 4.462 16.616 9.519-3.179 3.679-5.326 8.106-5.781 12.896-.548 5.76.569 9.345 4.757 20.493.289.607-4.411 2.384-6.497 3.514-2.4 1.298-2.682 2.579-.122 4.787a12.512 12.512 0 0 0 5.967 2.867c-4.849 3.636-9.181 8.055-11.542 12.881 4.018-4.743 8.986-8.846 13.673-12.644a16.9 16.9 0 0 0 1.655-.015c-4.784 4.213-9.501 12.733-11.804 17.441 3.937-4.648 9.122-13.38 13.763-17.649a26.356 26.356 0 0 0 2.982-.648c-4.573 4.452-7.841 14.604-9.445 19.431 3.181-6.225 6.924-14.789 11.331-19.111 2.472 1.155 4.385 3.008 6.05 5.252 1.217 1.643-1.915 17.467-2.938 26.166-6.608 6.701-8.416 13.348-3.019 20.092-3.397.59-6.029-1.677-9.072-4.638-4.695 10.758-12.614 20.969-4.066 35.842 16.288 2.836 24.787-4.333 31.251-20.527-2.347-1.086-4.895-1.791-7.166-3.584-1.284-1.015-.841-2.216.384-2.688.806-.045 1.189-.429 1.151-1.151 2.219.378 3.886-.354 4.163-3.258 6.147-1.743 3.246-9.71 3.129-11.327l.826-.214c.855 2.011 2.645 3.916 4.382 5.61-1.673 1.584-6.403 9.668-4.511 10.615 4.92 2.464 19.414.223 20.287-3.403.737.093 1.764.203 2.616-.13 8.759 3.023 16.739 1.291 22.462-.627 2.297-.772 1.4-2.579-.004-6.096z"></path>         <path d="M484.212 79.748c4.164-1.925 6.8-1.94 7.745-1.307 1.779 1.191 3.714 3.105 5.298 5.006.54.648.098.948-1.172 1.759-3.438 2.194-10.619.739-13.235-1.747-1.441-1.368-1.191-2.53 1.364-3.711z" fill="#db812e"></path>         <path d="M524.369 119.156c.445.701.866 1.295 1.26 1.754 6.819 7.939 20.892 9.395 25.391-4.146 2.782-8.375 1.091-14.315-2.571-18.527-1.652-.38-2.171-.612-2.969-1.05-1.911 1.28-5.413.756-7.258-.128l-13.853 22.097zM499.591 84.897c8.057 3.157 14.512 14.791 19.379 24.201l9.809-15.357c-2.813-.785-5.334-3.229-3.02-8.973-7.125-10.795-15.998-11.421-26.557-1.813-.991.901-.807 1.474.389 1.942zm8.109-1.274c.552-.464 5.85-.932 6.776 2.908.485 2.014-2.765 2.47-2.98.855-.308-2.305-2.226-2.61-3.796-3.763z" fill="#bbbcbf"></path>         <path d="M486.79 56.818c4.449-.279 7.11 11.6 8.726 15.424-.976.893-3.275 2.285-5.637 3.656-.823-1.103-1.589-2.592-2.278-4.538-2.174-6.139-3.871-14.349-.811-14.542zm1.314 8.057c1.242-.028 1.811.758 2.823 3.715s1.479 5.355.423 5.692c-1.058.337-1.97-.589-2.982-3.546-1.013-2.957-1.506-5.832-.264-5.861zM496.91 51.501c3.51-.192 6.552 2.637 8.654 8.776 2.103 6.14 2.938 11.916-.187 12.749s-6.616-1.355-8.719-7.495c-2.1-6.139-3.258-13.838.252-14.03zm1.252 8.569c1.242-.028 1.811.758 2.823 3.715s1.479 5.355.423 5.692c-1.058.337-1.97-.589-2.982-3.546-1.013-2.957-1.506-5.832-.264-5.861z" fill="#fff"></path>         <path d="M502.32 119.176l10.093.146-3.219 5.338c-.456-.226-.407-1.177-.292-1.975-.385.475-.809 1.447-.28 2.505 1.002 2.005 2.316 4.135 1.286 6.564-.544 1.284-1.899 2.083-3.798.481-1.663-1.403-2.248-3.864-2.711-6.862-.354 1.316-.195 2.606.816 5.483-1.511 2.097-3.426 4.855-4.938 6.951-5.053-6.209-2.844-12.863 3.043-18.631zM513.961 128.755c1.651 2.835 1.537 5.41 1.337 8.81 3.283-1.036 3.996-4.986 1.871-10.821-1.325-2.799-4.246.229-3.208 2.011z" fill="#f1d1c0"></path>         <path d="M511.093 140.952c1.856.33 3.379-.859 3.438-2.853.104-3.561.018-6.943-1.462-8.481-.828-.861-1.462-.898-2.054-.516.312 1.147.062 2.543-.198 3.052-.973 1.903 1.392 6.129.276 8.798zM507.774 134.018c-1.43-.066-1.967 1.614-1.421 4.914.446 2.701.749 3.851 2.567 3.487 1.203-.24 1.934-1.539 1.387-4.977-.332-2.092-.62-3.337-2.533-3.424zM553.68 89.458c-6.708-6.684-10.401-3.023-9.609 6.438-6.575 1.982-5.821-3.257-5.67-8.071-.592 2.675-1.489 4.788-.192 7.591-5.106.978-5.261-3.897-4.708-9.609-.736 2.05-.961 4.356-.673 6.918-3.875 1.329-4.933-3.22-3.459-9.321 1.223-5.064 5.015-9.145 10.281-9.225 6.395-.098 11.925 2.547 15.279 9.225 1.341 2.668.928 4.837-1.249 6.054z" fill="#f1d1c0"></path>         <path d="M529.924 93.73l-20.061 31.87c.476.927.794 1.778.823 2.576.603-.301 1.69-.186 1.806-.973 1.311-2.665 3.052-3.766 5.418-1.486-.116.77.389.646.694.723l18.473-29.585c-1.842-.022-3.438-1.273-4.167-2.778-1.505.093-2.246.162-2.986-.347zM528.573 83.431c-2.544 1.759-3.114 7.603-.285 7.692-.855-2.785-.508-5.7.285-7.692zM551.313 88.73c-1.797-1.29-3.379-1.98-4.234-1.252-2.515 2.139-2.055 5.121-1.916 8.139.038.835 2.021 1.059 2.896 1.207-.222-3.816.863-6.305 3.254-8.094z" fill="#f2ca30"></path>         <path d="M552.963 90.027c-1.246-1.107-2.413.096-3.388 2.37-.875 2.043-1.174 4.495.179 5.099 1.719.766 2.867-.669 3.521-2.684.779-2.398.639-3.939-.312-4.785z" fill="#fff22d"></path>         <path d="M490.035 135.828c3.082 2.823 6.396 4.928 9.402 3.555l5.324-7.202c-.285 5.86-.161 11.155 3.139 11.249-1.168 3.035 2.417 4.382 7.463 6.402-6.001 13.775-14.665 21.722-29.283 18.834-6.53-12.98-.97-22.77 3.955-32.838zm7.933 4.82c3.212 1.311 6.399 3.521 9.406 5.86-2.891 4.194-7.62 7.062-13.185 9.406.386-5.67 1.543-11.241 3.779-15.266z" fill="#00acec"></path>         <path d="M524.476 133.382c4.633 3.781 8.659 5.407 13.816 6.22-1.051 1.698-5.493 2.999-9.736 3.3-4.23.3-8.24-.073-8.402-.812-.344-2.362 2.286-5.953 4.322-8.708zM542.417 138.751c5.265-8.022 15.057-14.134 21.15-6.024.458 1.288 1.093 2.411 1.44 3.732.33 1.255-.355 1.771-1.506 2.03-7.93 1.783-15.123 2.823-21.084.262z" fill="#f1d1c0"></path>         <path d="M498.425 142.396c2.411 1.206 4.642 2.592 6.963 4.521-2.902 2.712-5.66 4.731-9.767 6.963.678-4.673 1.553-7.958 2.804-11.484z" fill="#00acec"></path>     </g> </svg>
