<svg xmlns="http://www.w3.org/2000/svg" xmlns:svg="http://www.w3.org/2000/svg" viewBox="348.27 0 104.89 172.28">
 <g class="layer" display="inline">
  <title>Layer 1</title>
  <g clip-rule="evenodd" fill-rule="evenodd" id="svg_1" transform="translate(576.773 -0.996005) matrix(0.993784 0 0 1 -573.483 0.996005)">
   <path d="m409.55,60.59c-9.23,-12.36 -18.12,-14.53 -26.73,-12.78c-0.29,-7.96 2.05,-15.51 4.15,-20.75c-1.82,0.92 -7.28,14.32 -6.27,21.26c-0.44,0.12 -0.88,0.25 -1.32,0.39c-1.97,-7 -2.1,-14.18 -1.74,-22.5c-1.37,6.46 -2.01,13.17 -0.01,23.09a54.4,54.4 0 0 0 -1.97,0.76c-2.84,-6.74 -3.22,-14.46 -3.44,-22.57c-0.66,7.51 -0.93,15.72 1.79,23.28c-0.95,0.42 -1.89,0.85 -2.82,1.3c-20.77,10.03 -20.39,36.62 -1.73,61.15c1.06,1.4 -0.31,2.72 -1.03,3.72c-5.08,7.01 -11.57,15.36 -16.36,22.81c-5.84,9.09 -7.47,28.76 0.53,28.18c0.2,3.72 3.12,6.02 7.9,2.87c7.35,5.3 6.87,-4.83 11.25,-12.93c2.38,1.68 4.26,2.23 8.74,1.59c2.05,3.6 1.21,6.79 6.29,10.38c3.29,0.11 6.58,0.03 10.11,-0.48c6.34,1.08 17.58,1.45 23.5,-2.29c9.67,0.91 16.91,0.11 22.53,-2.23c0.76,-0.19 1.03,-0.79 0.61,-1.66c-2.01,-4.44 -4.92,-6.62 -9.51,-7.7c3.83,-10.66 7.32,-20.31 7.35,-30.53c0.02,-6.94 -4.47,-16.33 -7.97,-24.14c3.41,-2.74 8.58,-28.02 9.87,-44.29c3.58,-2.4 5.1,-5.82 4.55,-10.66c5.6,-5.68 6.24,-10.07 2.56,-14.47c0.36,-5.68 -2.75,-8.27 -7.42,-9.71c-2.16,-2.21 -3.93,-2.19 -6.09,-1.85c1.84,-5.07 1.85,-10.42 0.81,-16.78c-0.4,-3.74 -6.75,-4.09 -6.36,-0.75c-0.72,9.09 -2.45,15.87 -6.7,23.58c-0.56,1.02 -0.79,3.06 -0.58,4.2c1.86,10.11 1.82,19.52 0.56,28.48a179.92,179.92 0 0 0 -5.11,3.47c0.46,-3.61 0.46,-6.5 -1.83,-10.22c-0.35,-0.57 -1.5,-0.86 -2.22,0.25c-2.35,3.61 -3.51,5.32 -5.9,8.53l0.01,0zm9.13,7.84c1.26,0.1 2.59,0.17 3.96,0.25a129.31,129.31 0 0 1 -2.17,7.8c-0.53,1.72 -1.76,1.44 -1.85,0.26a49.7,49.7 0 0 1 0.06,-8.31zm4.34,-1.38l-0.65,-0.1c0.26,-0.2 0.53,-0.4 0.81,-0.59l-0.16,0.69zm0.64,-2.99a79.63,79.63 0 0 0 -4.77,2.4c0.11,-0.91 0.23,-1.76 0.35,-2.56c1.68,-1.15 3.38,-2.31 5.07,-3.46a100,100 0 0 1 -0.65,3.62z" id="svg_13"/>
   <path d="m426.42,50.57c0.13,-6.61 0.08,-13.26 -1.14,-19.88c-0.32,-1.76 -0.26,-3.63 0.48,-4.8c3.66,-5.78 6.23,-13.07 6.5,-22.18c0.1,-3.31 3.93,-3.12 4.32,0.12c0.98,4.5 0.92,8.91 0,13.25c-0.7,2.75 -0.92,4.92 -1.76,7.1c1.14,-0.56 1.49,-2.46 1.96,-3.37c6.02,-1.13 7.17,4.8 5.23,8.53c-0.1,-0.84 -0.3,-1.7 -0.62,-2.59c-1.42,-3.95 -3.27,-2.77 -3.8,-1.84c-2.18,3.89 -4.35,6.75 -7.24,9.03l0.47,0.47c2.35,-1.09 4.52,-3.36 6.95,-7.66c1.01,-1.8 2.13,-1.21 2.55,0.77c1.17,5.41 -0.77,8.78 -2.85,12c4.44,3.3 2.9,7.32 0.77,11.1c2.72,-3.64 4.92,-7.22 0.66,-11.34c0.16,-0.22 0.31,-0.44 0.47,-0.66a5.46,5.46 0 0 0 1.25,1.2c0.98,3.65 2.49,6.55 6.15,5.92c0.05,4.11 -0.46,7.89 -4.19,9.73c-5.15,-3.53 -10.54,-5.17 -16.16,-4.9zm15.39,-10.18c3.07,0.93 6.86,-1.74 8.61,-7.02c2.32,3.27 0.5,8.28 -2.27,10.37c-2.29,1.73 -4.89,1.39 -6.34,-3.35zm-1.82,-2.74c1.09,-1.8 1.94,-3.9 2.09,-6.24c1.88,-1.9 2.19,-5.97 1.38,-8.24c12.76,4.04 1.33,22.02 -3.47,14.48zm-43.03,130.63c10.95,1.14 17.92,0.2 22.89,-1.9c-2,-5.17 -5.13,-8.36 -11.06,-8.41c-5.76,-0.05 -9.06,4.2 -11.83,10.31zm24.53,-2.51c10.12,0.62 15.3,0 20.22,-1.47c0.65,-0.19 0.75,-0.5 0.51,-1.11c-2.06,-4.74 -5.63,-6.73 -11.23,-6.43c-4.12,0.21 -7.17,2.72 -9.5,9.01zm-40.82,-12.71c-1.85,-0.19 -3.78,-2.59 -5.67,-5.86c0.27,-0.55 0.21,-0.98 -1.06,-2.02c-5.92,-4.86 -12.06,-5.38 -18.36,-5.29c-1.63,0.03 -2.43,0.41 -3.14,1.86c-4.36,8.93 -6.16,24.37 0.63,25.06c0.02,0.07 0.81,-10.85 2.8,-13.7c-0.91,4.71 -2.15,8.69 -1.64,16.57c0.1,1.46 2.98,2.25 5.07,0.51c0.81,-6.05 1.69,-10.74 3.91,-14.41c-1.6,4.24 -2.06,8.77 -2.32,13.51c-0.05,0.89 3.8,3 5.1,-0.19c3.22,-7.9 4.59,-12.26 5.57,-13.61c3.41,3.58 6.79,3.79 9.53,1.75c2.37,-1.78 1.8,-3.95 -0.42,-4.18z" fill="#f1d1c0" id="svg_14"/>
   <path d="m415.59,54.13c-1.31,2.02 -2.51,4.08 -4,5.9c-0.68,0.83 -0.36,1.45 0.5,2.64c1.09,1.53 1.76,3.64 2.88,5.15c0.68,0.93 1.89,0.98 2.25,-0.25c1.31,-4.52 1.5,-10.57 0.38,-12.69c-0.66,-1.24 -1.19,-2.01 -2.01,-0.75z" fill="#db812e" id="svg_15"/>
   <path d="m409.05,61.3c0.22,0.5 -0.26,0.9 -0.44,1.08c-0.96,0.91 -2.94,0.85 -5.33,0.06c-2.38,-0.79 -4.16,-1.31 -6.35,-3.62c-1.98,-2.09 -2.86,-7.08 -1.59,-9.37c0.85,0.31 1.79,0.75 2.82,1.38c-0.67,-0.01 -1.21,0.17 -1.51,0.59c-0.76,1.03 0.24,3.06 2.22,4.52c1.98,1.46 4.22,1.82 4.98,0.79c0.2,-0.28 0.28,-0.63 0.25,-1.02c1.5,1.51 3.14,3.35 4.95,5.59zm-23.27,-4.69c2.01,-1.92 6.73,-0.25 10.52,3.71c3.78,3.96 5.11,8.51 3.1,10.43c-1,0.95 -3.24,0.89 -5.73,0.07c-2.49,-0.83 -4.36,-1.37 -6.64,-3.78c-2.28,-2.42 -3.26,-8.51 -1.25,-10.43zm1.59,1.16c0.83,-1.13 3.27,-0.74 5.43,0.85c2.16,1.6 3.25,3.81 2.42,4.94c-0.83,1.12 -3.27,0.73 -5.43,-0.86c-2.16,-1.6 -3.25,-3.81 -2.42,-4.93z" fill="#fff" id="svg_16"/>
   <path d="m388.54,51.08c-3.04,-2.05 -10.8,-2.37 -12.01,3.86c-1.01,5.23 0.44,8.99 4.71,11.68c1.37,-1.92 -3.16,-4.05 -1.94,-12.18c0.51,-3.39 5.66,-4.14 9.24,-3.36zm2.92,-1.09c0.36,-0.71 1.23,-1.22 1.72,-1.43c-0.66,-0.17 -1.81,-0.53 -2.58,-0.61c0.02,0.73 0.05,1.37 0.86,2.04zm25.34,19.39c-3.85,3.67 -8.92,5.51 -12.75,9.3c-3.28,3.25 -5.27,9.58 1.04,21.37c5,9.35 -3.14,27.72 2.06,44.11c5.63,17.73 21.75,12.67 26.19,-7.07c2.42,-10.74 0.4,-26.48 -10.85,-48.07c-4.4,-8.45 -5.69,-13.73 -5.69,-19.64zm-2.4,9.48c0.77,-0.25 1.41,0.79 1.68,3.47s1.95,5.14 0.7,5.53c-1.26,0.39 -3.03,-1.48 -3.54,-4.06c-0.51,-2.58 0.39,-4.7 1.16,-4.94zm9.8,-18.34c3.73,-2.52 7.47,-4.96 11.19,-7.01c-1.65,-0.08 -4.36,0.84 -10.9,5.11c-0.09,0.64 -0.19,1.27 -0.29,1.9zm-1.61,8.16c4.59,0.25 9.52,0.56 13.17,2.2c-1.34,-2.53 -6.45,-2.89 -12.8,-3.84c-0.12,0.55 -0.24,1.09 -0.37,1.64zm0.5,-2.26c4.41,-3.08 11.59,-4.73 16.66,-5.95c-4.75,-0.45 -9.97,0.77 -16.19,3.63c-0.15,0.78 -0.31,1.55 -0.47,2.32z" fill="#bbbcbf" id="svg_17"/>
  </g>
 </g>
</svg>